<?xml version="1.0" encoding="utf-8"?>
<!-- Svg Vector Icons : http://www.onlinewebfonts.com/icon -->
<!DOCTYPE svg PUBLIC "-//W3C//DTD SVG 1.1//EN" "http://www.w3.org/Graphics/SVG/1.1/DTD/svg11.dtd">
<svg version="1.1" xmlns="http://www.w3.org/2000/svg" xmlns:xlink="http://www.w3.org/1999/xlink" x="0px" y="0px" viewBox="0 0 1000 1000" enable-background="new 0 0 1000 1000" xml:space="preserve">
<metadata> Svg Vector Icons : http://www.onlinewebfonts.com/icon </metadata>
<g><path d="M803.6,966.7L499.2,825.4L196.4,966.7l41.9-333.9L10,392.1l9.3-4.7c10.9-4.7,257.8-51.3,316.8-62.1c21.7-38.8,155.3-281.1,155.3-281.1l7.8-10.9l163.1,293.5L990,390.5L760.1,634.3L803.6,966.7z M38,399.8l215.9,228.3L215,940.3l284.2-132L785,941.9l-40.4-312.2l215.9-229.9L653,339.3l-1.6-3.1L499.2,64.4c-28,51.3-138.2,250-150.6,271.8l-1.6,3.1h-3.1C236.8,361,83,390.5,38,399.8z"/><path d="M499.2,48.8v767.2L205.7,954.3l40.4-323L24,395.2L342.4,333L499.2,48.8z"/></g>
</svg>